<mxfile host="65bd71144e">
    <diagram id="3324ROyrckb_EwY50yn6" name="Page-1">
        <mxGraphModel dx="2944" dy="2588" grid="1" gridSize="10" guides="1" tooltips="1" connect="1" arrows="1" fold="1" page="1" pageScale="1" pageWidth="1654" pageHeight="1169" math="0" shadow="0">
            <root>
                <mxCell id="0"/>
                <mxCell id="1" parent="0"/>
                <mxCell id="102" style="edgeStyle=none;html=1;fontSize=12;fontColor=#FFFF99;endArrow=classic;endFill=1;entryX=0.5;entryY=0;entryDx=0;entryDy=0;" edge="1" parent="1" source="41" target="95">
                    <mxGeometry relative="1" as="geometry">
                        <mxPoint x="1497" y="590" as="targetPoint"/>
                    </mxGeometry>
                </mxCell>
                <mxCell id="104" style="edgeStyle=none;html=1;entryX=0.5;entryY=0;entryDx=0;entryDy=0;fontSize=12;fontColor=#FFFF99;endArrow=classic;endFill=1;" edge="1" parent="1" source="41" target="97">
                    <mxGeometry relative="1" as="geometry">
                        <Array as="points">
                            <mxPoint x="1675" y="405"/>
                        </Array>
                    </mxGeometry>
                </mxCell>
                <mxCell id="105" style="edgeStyle=none;html=1;entryX=0.5;entryY=0;entryDx=0;entryDy=0;fontSize=12;fontColor=#FFFF99;endArrow=classic;endFill=1;" edge="1" parent="1" source="41" target="96">
                    <mxGeometry relative="1" as="geometry">
                        <Array as="points">
                            <mxPoint x="1320" y="405"/>
                        </Array>
                    </mxGeometry>
                </mxCell>
                <mxCell id="41" value="" style="html=1;whiteSpace=wrap;aspect=fixed;shape=isoRectangle;fontSize=20;" vertex="1" parent="1">
                    <mxGeometry x="1420" y="360" width="150" height="90" as="geometry"/>
                </mxCell>
                <mxCell id="25" style="edgeStyle=none;html=1;exitX=0.5;exitY=1;exitDx=0;exitDy=0;fontSize=20;endArrow=block;endFill=1;" edge="1" parent="1" source="2">
                    <mxGeometry relative="1" as="geometry">
                        <mxPoint x="902" y="230" as="targetPoint"/>
                    </mxGeometry>
                </mxCell>
                <mxCell id="2" value="" style="ellipse;fillColor=strokeColor;" vertex="1" parent="1">
                    <mxGeometry x="887" y="141" width="30" height="30" as="geometry"/>
                </mxCell>
                <mxCell id="11" value="Start" style="text;html=1;strokeColor=none;fillColor=none;align=center;verticalAlign=middle;whiteSpace=wrap;rounded=0;fontSize=20;" vertex="1" parent="1">
                    <mxGeometry x="685" y="100" width="60" height="30" as="geometry"/>
                </mxCell>
                <mxCell id="35" style="edgeStyle=none;html=1;entryX=0.5;entryY=0;entryDx=0;entryDy=0;entryPerimeter=0;fontSize=16;endArrow=block;endFill=1;" edge="1" parent="1" source="23" target="32">
                    <mxGeometry relative="1" as="geometry"/>
                </mxCell>
                <mxCell id="42" style="edgeStyle=none;html=1;fontSize=12;endArrow=block;endFill=1;exitX=0.002;exitY=0.509;exitDx=0;exitDy=0;exitPerimeter=0;entryX=0.501;entryY=0.001;entryDx=0;entryDy=0;entryPerimeter=0;" edge="1" parent="1" source="23" target="38">
                    <mxGeometry relative="1" as="geometry">
                        <mxPoint x="400" y="340" as="targetPoint"/>
                        <Array as="points">
                            <mxPoint x="285" y="274"/>
                        </Array>
                    </mxGeometry>
                </mxCell>
                <mxCell id="43" style="edgeStyle=none;html=1;entryX=0.497;entryY=0.017;entryDx=0;entryDy=0;entryPerimeter=0;fontSize=12;endArrow=block;endFill=1;" edge="1" parent="1" target="41">
                    <mxGeometry relative="1" as="geometry">
                        <mxPoint x="980" y="274" as="sourcePoint"/>
                        <Array as="points">
                            <mxPoint x="1495" y="274"/>
                        </Array>
                    </mxGeometry>
                </mxCell>
                <mxCell id="23" value="" style="html=1;whiteSpace=wrap;aspect=fixed;shape=isoRectangle;fontSize=20;" vertex="1" parent="1">
                    <mxGeometry x="827" y="228" width="150" height="90" as="geometry"/>
                </mxCell>
                <mxCell id="28" value="&lt;font style=&quot;font-size: 16px;&quot;&gt;Computer guess&lt;/font&gt;" style="text;html=1;strokeColor=none;fillColor=none;align=center;verticalAlign=middle;whiteSpace=wrap;rounded=0;fontSize=20;" vertex="1" parent="1">
                    <mxGeometry x="869.5" y="258" width="65" height="30" as="geometry"/>
                </mxCell>
                <mxCell id="83" style="edgeStyle=none;html=1;entryX=0.5;entryY=0;entryDx=0;entryDy=0;fontSize=12;fontColor=#FFFF99;endArrow=none;endFill=0;" edge="1" parent="1" source="32" target="75">
                    <mxGeometry relative="1" as="geometry">
                        <Array as="points">
                            <mxPoint x="720" y="395"/>
                        </Array>
                    </mxGeometry>
                </mxCell>
                <mxCell id="85" style="edgeStyle=none;html=1;entryX=0.5;entryY=0;entryDx=0;entryDy=0;fontSize=12;fontColor=#FFFF99;endArrow=none;endFill=0;" edge="1" parent="1" source="32" target="74">
                    <mxGeometry relative="1" as="geometry"/>
                </mxCell>
                <mxCell id="87" style="edgeStyle=none;html=1;entryX=0.5;entryY=0;entryDx=0;entryDy=0;fontSize=12;fontColor=#FFFF99;endArrow=none;endFill=0;" edge="1" parent="1" source="32" target="76">
                    <mxGeometry relative="1" as="geometry">
                        <Array as="points">
                            <mxPoint x="1080" y="395"/>
                        </Array>
                    </mxGeometry>
                </mxCell>
                <mxCell id="32" value="" style="html=1;whiteSpace=wrap;aspect=fixed;shape=isoRectangle;fontSize=20;" vertex="1" parent="1">
                    <mxGeometry x="827" y="350" width="150" height="90" as="geometry"/>
                </mxCell>
                <mxCell id="36" value="&lt;font style=&quot;font-size: 12px;&quot;&gt;Paper&lt;/font&gt;" style="text;html=1;strokeColor=none;fillColor=none;align=center;verticalAlign=middle;whiteSpace=wrap;rounded=0;fontSize=20;" vertex="1" parent="1">
                    <mxGeometry x="902" y="318" width="65" height="30" as="geometry"/>
                </mxCell>
                <mxCell id="37" value="&lt;font style=&quot;font-size: 16px;&quot;&gt;User guess&lt;/font&gt;" style="text;html=1;strokeColor=none;fillColor=none;align=center;verticalAlign=middle;whiteSpace=wrap;rounded=0;fontSize=20;" vertex="1" parent="1">
                    <mxGeometry x="869.5" y="380" width="65" height="30" as="geometry"/>
                </mxCell>
                <mxCell id="57" style="edgeStyle=none;html=1;entryX=0.5;entryY=0;entryDx=0;entryDy=0;fontSize=12;endArrow=block;endFill=1;exitX=-0.021;exitY=0.525;exitDx=0;exitDy=0;exitPerimeter=0;" edge="1" parent="1" source="38" target="51">
                    <mxGeometry relative="1" as="geometry">
                        <Array as="points">
                            <mxPoint x="120" y="395"/>
                        </Array>
                    </mxGeometry>
                </mxCell>
                <mxCell id="59" style="edgeStyle=none;html=1;entryX=0.5;entryY=0;entryDx=0;entryDy=0;fontSize=12;endArrow=block;endFill=1;" edge="1" parent="1" source="38" target="48">
                    <mxGeometry relative="1" as="geometry"/>
                </mxCell>
                <mxCell id="61" style="edgeStyle=none;html=1;entryX=0.5;entryY=0;entryDx=0;entryDy=0;fontSize=12;endArrow=block;endFill=1;" edge="1" parent="1" source="38" target="52">
                    <mxGeometry relative="1" as="geometry">
                        <Array as="points">
                            <mxPoint x="460" y="393"/>
                        </Array>
                    </mxGeometry>
                </mxCell>
                <mxCell id="38" value="" style="html=1;whiteSpace=wrap;aspect=fixed;shape=isoRectangle;fontSize=20;" vertex="1" parent="1">
                    <mxGeometry x="210" y="348" width="150" height="90" as="geometry"/>
                </mxCell>
                <mxCell id="39" value="&lt;font style=&quot;font-size: 16px;&quot;&gt;User guess&lt;/font&gt;" style="text;html=1;strokeColor=none;fillColor=none;align=center;verticalAlign=middle;whiteSpace=wrap;rounded=0;fontSize=20;" vertex="1" parent="1">
                    <mxGeometry x="252.5" y="378" width="65" height="30" as="geometry"/>
                </mxCell>
                <mxCell id="40" value="&lt;font style=&quot;font-size: 16px;&quot;&gt;User guess&lt;/font&gt;" style="text;html=1;strokeColor=none;fillColor=none;align=center;verticalAlign=middle;whiteSpace=wrap;rounded=0;fontSize=20;" vertex="1" parent="1">
                    <mxGeometry x="1462.5" y="378" width="65" height="30" as="geometry"/>
                </mxCell>
                <mxCell id="44" value="&lt;font style=&quot;font-size: 12px;&quot;&gt;Rock&lt;/font&gt;" style="text;html=1;strokeColor=none;fillColor=none;align=center;verticalAlign=middle;whiteSpace=wrap;rounded=0;fontSize=20;" vertex="1" parent="1">
                    <mxGeometry x="475" y="240" width="65" height="30" as="geometry"/>
                </mxCell>
                <mxCell id="45" value="&lt;font style=&quot;font-size: 12px;&quot;&gt;Scissors&lt;/font&gt;" style="text;html=1;strokeColor=none;fillColor=none;align=center;verticalAlign=middle;whiteSpace=wrap;rounded=0;fontSize=20;" vertex="1" parent="1">
                    <mxGeometry x="1310" y="240" width="65" height="30" as="geometry"/>
                </mxCell>
                <mxCell id="65" style="edgeStyle=none;html=1;exitX=0.5;exitY=1;exitDx=0;exitDy=0;fontSize=12;endArrow=none;endFill=0;" edge="1" parent="1" source="48">
                    <mxGeometry relative="1" as="geometry">
                        <mxPoint x="285" y="880" as="targetPoint"/>
                    </mxGeometry>
                </mxCell>
                <mxCell id="48" value="" style="rounded=1;whiteSpace=wrap;html=1;fontSize=12;gradientColor=none;" vertex="1" parent="1">
                    <mxGeometry x="225" y="600" width="120" height="60" as="geometry"/>
                </mxCell>
                <mxCell id="64" style="edgeStyle=none;html=1;entryX=0.057;entryY=0.633;entryDx=0;entryDy=0;entryPerimeter=0;fontSize=12;endArrow=block;endFill=1;exitX=0.5;exitY=1;exitDx=0;exitDy=0;" edge="1" parent="1" source="51" target="63">
                    <mxGeometry relative="1" as="geometry">
                        <Array as="points">
                            <mxPoint x="120" y="880"/>
                        </Array>
                    </mxGeometry>
                </mxCell>
                <mxCell id="51" value="" style="rounded=1;whiteSpace=wrap;html=1;fontSize=12;gradientColor=none;" vertex="1" parent="1">
                    <mxGeometry x="60" y="600" width="120" height="60" as="geometry"/>
                </mxCell>
                <mxCell id="52" value="" style="rounded=1;whiteSpace=wrap;html=1;fontSize=12;gradientColor=none;" vertex="1" parent="1">
                    <mxGeometry x="400" y="600" width="120" height="60" as="geometry"/>
                </mxCell>
                <mxCell id="53" value="&lt;span style=&quot;font-size: 16px;&quot;&gt;Draw&lt;/span&gt;" style="text;html=1;strokeColor=none;fillColor=none;align=center;verticalAlign=middle;whiteSpace=wrap;rounded=0;fontSize=20;" vertex="1" parent="1">
                    <mxGeometry x="87.5" y="615" width="65" height="30" as="geometry"/>
                </mxCell>
                <mxCell id="54" value="&lt;span style=&quot;font-size: 16px;&quot;&gt;User wins&lt;/span&gt;" style="text;html=1;strokeColor=none;fillColor=none;align=center;verticalAlign=middle;whiteSpace=wrap;rounded=0;fontSize=20;" vertex="1" parent="1">
                    <mxGeometry x="241.25" y="615" width="87.5" height="30" as="geometry"/>
                </mxCell>
                <mxCell id="66" style="edgeStyle=none;html=1;fontSize=12;endArrow=none;endFill=0;exitX=0.5;exitY=1;exitDx=0;exitDy=0;" edge="1" parent="1" source="52">
                    <mxGeometry relative="1" as="geometry">
                        <mxPoint x="460" y="880" as="targetPoint"/>
                        <mxPoint x="460" y="670" as="sourcePoint"/>
                    </mxGeometry>
                </mxCell>
                <mxCell id="56" value="&lt;span style=&quot;font-size: 16px;&quot;&gt;Computer wins&lt;/span&gt;" style="text;html=1;strokeColor=none;fillColor=none;align=center;verticalAlign=middle;whiteSpace=wrap;rounded=0;fontSize=20;" vertex="1" parent="1">
                    <mxGeometry x="416.25" y="615" width="87.5" height="30" as="geometry"/>
                </mxCell>
                <mxCell id="58" value="&lt;font style=&quot;font-size: 12px;&quot;&gt;Rock&lt;/font&gt;" style="text;html=1;strokeColor=none;fillColor=none;align=center;verticalAlign=middle;whiteSpace=wrap;rounded=0;fontSize=20;" vertex="1" parent="1">
                    <mxGeometry x="50" y="470" width="65" height="30" as="geometry"/>
                </mxCell>
                <mxCell id="60" value="&lt;font style=&quot;font-size: 12px;&quot;&gt;Paper&lt;/font&gt;" style="text;html=1;strokeColor=none;fillColor=none;align=center;verticalAlign=middle;whiteSpace=wrap;rounded=0;fontSize=20;" vertex="1" parent="1">
                    <mxGeometry x="280" y="510" width="65" height="30" as="geometry"/>
                </mxCell>
                <mxCell id="62" value="&lt;font style=&quot;font-size: 12px;&quot;&gt;Scissors&lt;/font&gt;" style="text;html=1;strokeColor=none;fillColor=none;align=center;verticalAlign=middle;whiteSpace=wrap;rounded=0;fontSize=20;" vertex="1" parent="1">
                    <mxGeometry x="470" y="470" width="65" height="30" as="geometry"/>
                </mxCell>
                <mxCell id="63" value="" style="ellipse;html=1;shape=endState;fillColor=strokeColor;fontSize=12;" vertex="1" parent="1">
                    <mxGeometry x="887" y="860" width="30" height="30" as="geometry"/>
                </mxCell>
                <mxCell id="67" value="End" style="text;html=1;strokeColor=none;fillColor=none;align=center;verticalAlign=middle;whiteSpace=wrap;rounded=0;fontSize=20;" vertex="1" parent="1">
                    <mxGeometry x="874.5" y="920" width="60" height="30" as="geometry"/>
                </mxCell>
                <mxCell id="89" style="edgeStyle=none;html=1;entryX=0.5;entryY=0;entryDx=0;entryDy=0;fontSize=12;fontColor=#FFFF99;endArrow=classic;endFill=1;" edge="1" parent="1" source="74" target="63">
                    <mxGeometry relative="1" as="geometry"/>
                </mxCell>
                <mxCell id="74" value="" style="rounded=1;whiteSpace=wrap;html=1;fontSize=12;gradientColor=none;" vertex="1" parent="1">
                    <mxGeometry x="842" y="540" width="120" height="60" as="geometry"/>
                </mxCell>
                <mxCell id="90" style="edgeStyle=none;html=1;fontSize=12;fontColor=#FFFF99;endArrow=none;endFill=0;" edge="1" parent="1" source="75">
                    <mxGeometry relative="1" as="geometry">
                        <mxPoint x="910" y="720" as="targetPoint"/>
                        <Array as="points">
                            <mxPoint x="720" y="720"/>
                        </Array>
                    </mxGeometry>
                </mxCell>
                <mxCell id="75" value="" style="rounded=1;whiteSpace=wrap;html=1;fontSize=12;gradientColor=none;" vertex="1" parent="1">
                    <mxGeometry x="660" y="540" width="120" height="60" as="geometry"/>
                </mxCell>
                <mxCell id="91" style="edgeStyle=none;html=1;fontSize=12;fontColor=#FFFF99;endArrow=none;endFill=0;" edge="1" parent="1" source="76">
                    <mxGeometry relative="1" as="geometry">
                        <mxPoint x="900" y="720" as="targetPoint"/>
                        <Array as="points">
                            <mxPoint x="1080" y="720"/>
                        </Array>
                    </mxGeometry>
                </mxCell>
                <mxCell id="76" value="" style="rounded=1;whiteSpace=wrap;html=1;fontSize=12;gradientColor=none;" vertex="1" parent="1">
                    <mxGeometry x="1020" y="540" width="120" height="60" as="geometry"/>
                </mxCell>
                <mxCell id="80" value="&lt;span style=&quot;font-size: 16px;&quot;&gt;User wins&lt;/span&gt;" style="text;html=1;strokeColor=none;fillColor=none;align=center;verticalAlign=middle;whiteSpace=wrap;rounded=0;fontSize=20;" vertex="1" parent="1">
                    <mxGeometry x="676.25" y="555" width="87.5" height="30" as="geometry"/>
                </mxCell>
                <mxCell id="81" value="&lt;span style=&quot;font-size: 16px;&quot;&gt;Draw&lt;/span&gt;" style="text;html=1;strokeColor=none;fillColor=none;align=center;verticalAlign=middle;whiteSpace=wrap;rounded=0;fontSize=20;" vertex="1" parent="1">
                    <mxGeometry x="869" y="555" width="65" height="30" as="geometry"/>
                </mxCell>
                <mxCell id="82" value="&lt;span style=&quot;font-size: 16px;&quot;&gt;Computer wins&lt;/span&gt;" style="text;html=1;strokeColor=none;fillColor=none;align=center;verticalAlign=middle;whiteSpace=wrap;rounded=0;fontSize=20;" vertex="1" parent="1">
                    <mxGeometry x="1036.25" y="555" width="87.5" height="30" as="geometry"/>
                </mxCell>
                <mxCell id="84" value="&lt;font style=&quot;font-size: 12px;&quot;&gt;Scissors&lt;/font&gt;" style="text;html=1;strokeColor=none;fillColor=none;align=center;verticalAlign=middle;whiteSpace=wrap;rounded=0;fontSize=20;" vertex="1" parent="1">
                    <mxGeometry x="730" y="450" width="65" height="30" as="geometry"/>
                </mxCell>
                <mxCell id="86" value="&lt;font style=&quot;font-size: 12px;&quot;&gt;Paper&lt;/font&gt;" style="text;html=1;strokeColor=none;fillColor=none;align=center;verticalAlign=middle;whiteSpace=wrap;rounded=0;fontSize=20;" vertex="1" parent="1">
                    <mxGeometry x="912" y="480" width="65" height="30" as="geometry"/>
                </mxCell>
                <mxCell id="88" value="&lt;font style=&quot;font-size: 12px;&quot;&gt;Rock&lt;/font&gt;" style="text;html=1;strokeColor=none;fillColor=none;align=center;verticalAlign=middle;whiteSpace=wrap;rounded=0;fontSize=20;" vertex="1" parent="1">
                    <mxGeometry x="1090" y="450" width="65" height="30" as="geometry"/>
                </mxCell>
                <mxCell id="115" style="edgeStyle=none;html=1;entryX=1;entryY=0.5;entryDx=0;entryDy=0;fontSize=12;fontColor=#FFFF99;endArrow=classic;endFill=1;exitX=0.5;exitY=1;exitDx=0;exitDy=0;" edge="1" parent="1" source="95" target="63">
                    <mxGeometry relative="1" as="geometry">
                        <Array as="points">
                            <mxPoint x="1497" y="880"/>
                        </Array>
                    </mxGeometry>
                </mxCell>
                <mxCell id="95" value="" style="rounded=1;whiteSpace=wrap;html=1;fontSize=12;gradientColor=none;" vertex="1" parent="1">
                    <mxGeometry x="1437" y="600" width="120" height="60" as="geometry"/>
                </mxCell>
                <mxCell id="116" style="edgeStyle=none;html=1;fontSize=12;fontColor=#FFFF99;endArrow=none;endFill=0;" edge="1" parent="1" source="96">
                    <mxGeometry relative="1" as="geometry">
                        <mxPoint x="1315" y="880" as="targetPoint"/>
                    </mxGeometry>
                </mxCell>
                <mxCell id="96" value="" style="rounded=1;whiteSpace=wrap;html=1;fontSize=12;gradientColor=none;" vertex="1" parent="1">
                    <mxGeometry x="1255" y="600" width="120" height="60" as="geometry"/>
                </mxCell>
                <mxCell id="117" style="edgeStyle=none;html=1;fontSize=12;fontColor=#FFFF99;endArrow=none;endFill=0;" edge="1" parent="1" source="97">
                    <mxGeometry relative="1" as="geometry">
                        <mxPoint x="1490" y="880" as="targetPoint"/>
                        <Array as="points">
                            <mxPoint x="1670" y="880"/>
                        </Array>
                    </mxGeometry>
                </mxCell>
                <mxCell id="97" value="" style="rounded=1;whiteSpace=wrap;html=1;fontSize=12;gradientColor=none;" vertex="1" parent="1">
                    <mxGeometry x="1615" y="600" width="120" height="60" as="geometry"/>
                </mxCell>
                <mxCell id="99" value="&lt;span style=&quot;font-size: 16px;&quot;&gt;User wins&lt;/span&gt;" style="text;html=1;strokeColor=none;fillColor=none;align=center;verticalAlign=middle;whiteSpace=wrap;rounded=0;fontSize=20;" vertex="1" parent="1">
                    <mxGeometry x="1271.25" y="615" width="87.5" height="30" as="geometry"/>
                </mxCell>
                <mxCell id="100" value="&lt;span style=&quot;font-size: 16px;&quot;&gt;Draw&lt;/span&gt;" style="text;html=1;strokeColor=none;fillColor=none;align=center;verticalAlign=middle;whiteSpace=wrap;rounded=0;fontSize=20;" vertex="1" parent="1">
                    <mxGeometry x="1470" y="615" width="65" height="30" as="geometry"/>
                </mxCell>
                <mxCell id="101" value="&lt;span style=&quot;font-size: 16px;&quot;&gt;Computer wins&lt;/span&gt;" style="text;html=1;strokeColor=none;fillColor=none;align=center;verticalAlign=middle;whiteSpace=wrap;rounded=0;fontSize=20;" vertex="1" parent="1">
                    <mxGeometry x="1631.25" y="615" width="87.5" height="30" as="geometry"/>
                </mxCell>
                <mxCell id="106" value="&lt;font style=&quot;font-size: 12px;&quot;&gt;Rock&lt;/font&gt;" style="text;html=1;strokeColor=none;fillColor=none;align=center;verticalAlign=middle;whiteSpace=wrap;rounded=0;fontSize=20;" vertex="1" parent="1">
                    <mxGeometry x="1320" y="470" width="65" height="30" as="geometry"/>
                </mxCell>
                <mxCell id="107" value="&lt;font style=&quot;font-size: 12px;&quot;&gt;Scissors&lt;/font&gt;" style="text;html=1;strokeColor=none;fillColor=none;align=center;verticalAlign=middle;whiteSpace=wrap;rounded=0;fontSize=20;" vertex="1" parent="1">
                    <mxGeometry x="1505" y="510" width="65" height="30" as="geometry"/>
                </mxCell>
                <mxCell id="109" value="&lt;font style=&quot;font-size: 12px;&quot;&gt;Paper&lt;/font&gt;" style="text;html=1;strokeColor=none;fillColor=none;align=center;verticalAlign=middle;whiteSpace=wrap;rounded=0;fontSize=20;" vertex="1" parent="1">
                    <mxGeometry x="1690" y="470" width="65" height="30" as="geometry"/>
                </mxCell>
            </root>
        </mxGraphModel>
    </diagram>
</mxfile>